<svg id="svg" xmlns="http://www.w3.org/2000/svg" xmlns:xlink="http://www.w3.org/1999/xlink" width="400" height="400" viewBox="0, 0, 400,400"><g id="svgg"><path id="path0" d="M101.172 9.068 C 54.035 17.479,17.111 54.653,9.004 101.860 C 7.218 112.259,7.218 286.959,9.004 297.359 C 17.165 344.879,54.340 382.054,101.860 390.215 C 112.259 392.001,286.959 392.001,297.359 390.215 C 344.879 382.054,382.054 344.879,390.215 297.359 C 392.001 286.959,392.001 112.259,390.215 101.860 C 382.054 54.340,344.879 17.165,297.359 9.004 C 287.358 7.287,110.832 7.344,101.172 9.068 M294.353 35.084 C 329.869 41.969,357.250 69.349,364.134 104.866 C 366.439 116.754,366.439 282.465,364.134 294.353 C 357.250 329.869,329.869 357.250,294.353 364.134 C 282.465 366.439,116.754 366.439,104.866 364.134 C 69.349 357.250,41.969 329.869,35.084 294.353 C 32.780 282.465,32.780 116.754,35.084 104.866 C 41.915 69.630,69.161 42.177,104.289 35.136 C 115.466 32.896,282.829 32.850,294.353 35.084 M299.611 83.262 C 284.820 90.974,290.873 112.631,307.524 111.571 C 322.984 110.587,326.655 88.303,312.254 82.862 C 309.031 81.645,302.305 81.857,299.611 83.262 M190.195 100.009 C 103.327 107.344,65.409 213.807,128.064 274.456 C 186.531 331.050,284.597 299.337,298.978 219.186 C 309.193 162.255,266.750 105.038,210.883 100.424 C 199.261 99.464,197.142 99.422,190.195 100.009 M219.141 128.486 C 271.622 144.052,291.517 206.414,257.535 248.835 C 218.676 297.345,141.146 280.295,125.260 219.745 C 110.811 164.674,164.662 112.328,219.141 128.486 " stroke="none" fill="#000000" fill-rule="evenodd"></path></g></svg>