<svg id="svg" xmlns="http://www.w3.org/2000/svg" xmlns:xlink="http://www.w3.org/1999/xlink" width="400" height="517.2413793103449" viewBox="0, 0, 400,517.2413793103449"><g id="svgg"><path id="path0" d="M166.379 2.797 C 98.140 15.106,44.154 54.681,16.500 112.669 C -16.976 182.866,0.783 270.517,53.733 296.430 C 70.048 304.414,73.583 302.600,78.738 283.604 C 84.403 262.723,84.035 258.795,75.203 245.894 C 46.997 204.695,56.421 139.927,97.096 95.423 C 156.157 30.801,279.146 39.255,314.178 110.345 C 338.751 160.211,323.849 254.037,284.542 296.933 C 254.359 329.872,207.111 329.211,190.452 295.616 C 184.124 282.854,185.872 268.275,198.857 225.499 C 219.507 157.476,218.485 135.134,194.029 119.896 C 146.493 90.279,97.221 163.815,120.405 229.777 L 123.801 239.440 104.200 322.355 C 80.827 421.221,80.227 425.105,81.687 468.103 C 83.613 524.824,85.454 527.629,104.157 502.336 C 131.835 464.905,142.258 441.266,156.884 382.752 L 167.442 340.517 177.255 350.018 C 213.868 385.462,283.423 381.910,331.646 342.133 C 400.982 284.942,422.865 155.846,375.526 83.261 C 333.136 18.263,252.540 -12.744,166.379 2.797 " stroke="none" fill="#000000" fill-rule="evenodd"></path></g></svg>