<svg id="svg" xmlns="http://www.w3.org/2000/svg" xmlns:xlink="http://www.w3.org/1999/xlink" width="400" height="400" viewBox="0, 0, 400,400"><g id="svgg"><path id="path0" d="M255.469 51.487 C 224.302 58.395,201.512 82.231,196.042 113.640 C 195.116 118.959,195.421 137.698,196.490 141.123 C 197.077 143.002,197.289 142.999,182.031 141.318 C 132.676 135.878,82.624 109.658,48.353 71.289 C 40.563 62.567,41.519 62.602,37.726 70.898 C 23.503 102.007,33.107 142.046,59.428 161.367 C 61.588 162.952,63.210 164.394,63.034 164.570 C 61.687 165.917,41.843 160.795,34.987 157.331 C 32.960 156.307,31.061 155.469,30.767 155.469 C 29.719 155.469,31.228 170.805,32.843 176.563 C 39.808 201.399,58.061 220.417,83.078 228.905 L 89.403 231.051 83.569 232.038 C 79.785 232.678,74.096 232.873,67.383 232.594 C 61.689 232.356,57.031 232.449,57.031 232.801 C 57.031 234.132,61.451 243.673,64.386 248.677 C 75.843 268.213,102.255 284.375,122.725 284.375 C 126.590 284.375,126.531 284.951,122.350 288.024 C 96.563 306.978,63.754 316.996,29.883 316.257 C 22.041 316.086,15.625 316.026,15.625 316.124 C 15.625 316.221,18.525 318.044,22.070 320.174 C 98.734 366.235,201.318 358.887,268.750 302.503 C 316.669 262.435,346.875 198.621,346.875 137.454 L 346.875 125.252 353.349 120.121 C 363.816 111.827,384.375 89.119,384.375 85.854 C 384.375 85.530,382.178 86.159,379.492 87.252 C 370.027 91.102,345.145 97.749,344.102 96.706 C 343.972 96.576,346.642 94.286,350.037 91.618 C 359.927 83.843,371.795 66.894,373.935 57.486 L 374.454 55.206 368.342 58.503 C 356.879 64.686,343.539 69.778,332.147 72.318 L 326.403 73.599 323.553 70.893 C 305.870 54.102,278.663 46.347,255.469 51.487 " stroke="none" fill="#000000" fill-rule="evenodd"></path></g></svg>